# xmcd
#
# Track frame offsets: 
#        150
#        35625
#        53499
#        66895
#        84026
#        115496
#        133997
#        151290
#        167030
#        181358
#        201370
#        217371
#        238339
#        269087
#        289457
#
# Disc length: 4152 seconds
#
# Revision: 1
# Processed by: cddbd v1.5.2PL0 Copyright (c) Steve Scherf et al.
# Submitted via: ExactAudioCopyFreeDBPlugin 1.0
#
DISCID=f210360f
DTITLE=Richmond Fontaine - Postcard from Portland: Live at Dante's 
DYEAR=2010
DGENRE=Americana
TTITLE0=White Line Fever
TTITLE1=We Used to Think the Freeway Sounded Like a River
TTITLE2=Maybe We Were Both Born Blue
TTITLE3=43
TTITLE4=Two Alone
TTITLE5=Lost In This World
TTITLE6=El Tiradito
TTITLE7=Ruby and Lou
TTITLE8=The Gits
TTITLE9=Lonnie
TTITLE10=Watch Out
TTITLE11=Contrails
TTITLE12=Four Walls
TTITLE13=Song For Dead Moon
TTITLE14=Postcard from Portland
EXTD=
EXTT0=
EXTT1=
EXTT2=
EXTT3=
EXTT4=
EXTT5=
EXTT6=
EXTT7=
EXTT8=
EXTT9=
EXTT10=
EXTT11=
EXTT12=
EXTT13=
EXTT14=
PLAYORDER=
